<?xml version="1.0" encoding="UTF-8"?>
<!DOCTYPE svg PUBLIC "-//W3C//DTD SVG 1.1//EN" "http://www.w3.org/Graphics/SVG/1.1/DTD/svg11.dtd">
<!-- Creator: CorelDRAW 2019 (64-Bit Evaluation Version) -->
<svg xmlns="http://www.w3.org/2000/svg" xml:space="preserve" width="483.99mm" height="96.3966mm" version="1.1" style="shape-rendering:geometricPrecision; text-rendering:geometricPrecision; image-rendering:optimizeQuality; fill-rule:evenodd; clip-rule:evenodd"
viewBox="0 0 48394.88 9638.83"
 xmlns:xlink="http://www.w3.org/1999/xlink"
 xmlns:xodm="http://www.corel.com/coreldraw/odm/2003">
 <defs>
  <style type="text/css">
   <![CDATA[
    .fil0 {fill:black}
    .fil1 {fill:red}
   ]]>
  </style>
 </defs>
 <g id="Layer_x0020_1">
  <metadata id="CorelCorpID_0Corel-Layer"/>
  <path class="fil0" d="M39821.93 4954.55c0,-510.29 51.46,-868.12 264.39,-1296.74 377.62,-760.11 1248.98,-1011.63 1947.56,-730 241.63,97.42 804.46,457.18 804.46,650.83l0 2672.43c0,151.04 -625.61,533.57 -872.75,609.01 -650.5,198.54 -1405.53,63.41 -1795.11,-534.21 -226.25,-347.08 -348.56,-807.78 -348.56,-1371.32zm-423.36 -264.6c0,869.29 47.52,1478.21 631.3,2120.53 497.78,547.69 1519.18,680.5 2217.93,331.8 405.99,-202.6 366.19,-264.69 590.55,-414.92 0,1039.31 46.01,1923.83 -863.9,2364.2 -551.44,266.89 -1361.13,206.42 -1948.46,-28.12 -93.03,-37.15 -218.15,-105.83 -309.89,-113.46l0 423.35c600.61,317.8 1631.58,333.61 2279.2,135.97 838.28,-255.84 1239.94,-1011.81 1239.94,-1855.85l0 -5080.27 -317.52 0c-33.9,145.53 -52.92,322.29 -52.92,502.74 -77.36,-51.81 -166.16,-146.96 -256.21,-220.07 -328,-266.32 -629.5,-414.96 -1119.7,-414.96 -966.19,0 -1649.74,528.85 -1922.07,1332.48 -85.11,251.16 -168.26,595.41 -168.26,916.6z"/>
  <path class="fil0" d="M24607.56 7203.62l423.36 0 0 -3413.31c0,-118.29 463.48,-566.66 570.17,-646.96 248.15,-186.77 591.13,-322.8 913.01,-330.86 810.64,-20.32 1136.33,555.39 1136.33,1348.26l0 3042.87 396.9 0 0 -3175.17c0,-640.33 -274.52,-1269.82 -823.29,-1478.71 -762.55,-290.27 -1581.23,-4.94 -2079.58,586.79l-140.01 177.51c0,-375 26.47,-654.69 26.47,-1031.93l0 -2196.16c0,-119.83 -135.73,-79.38 -423.36,-79.38l0 7197.05z"/>
  <path class="fil0" d="M29820.13 5986.48l0 -238.14c0,-532.2 490.69,-899.63 1031.93,-899.63 356.28,0 638.43,-8.13 990.04,68.36 208.31,45.33 382.43,125.82 571.09,169.78l1.99 1060.38c-6.36,115.45 -1.79,86.01 -58.57,153.11 -815.31,963.43 -2536.47,903.9 -2536.47,-313.85zm-26.46 -3333.92l0 396.9c119.56,-9.95 327.74,-96.07 454.77,-127.35 477.62,-117.58 1098.22,-153.62 1537.93,39.76 268.54,118.09 465.27,337.69 557.75,632.93 97.01,309.68 69.06,727.93 69.06,1121.62 -123.83,-10.3 -289.54,-86.16 -433.6,-122.05 -484.62,-120.75 -1041.26,-187.37 -1525.04,-63.78 -527.74,134.81 -1057.77,591.2 -1057.77,1244.22 0,519.24 28.07,835.3 429.52,1210.99 591.23,553.29 1640.59,393.59 2307.22,-61.82 112.37,-76.76 207.32,-183.36 306.12,-249.53 0,198.78 52.93,350.68 52.93,529.19l370.43 0c0,-547.38 -26.46,-1045.11 -26.46,-1614.04 0,-847.24 193.07,-2217.52 -513.51,-2767.5 -598.68,-465.99 -1530.88,-446.25 -2249.65,-260.25 -125.31,32.43 -164.03,63.76 -279.72,90.72z"/>
  <path class="fil0" d="M3730.82 2811.31c1034.91,0 1402.37,711.5 1402.37,1666.96l-2857.65 0c0,-826.78 637.13,-1666.96 1455.29,-1666.96zm-1905.11 1905.1c0,435.52 21.25,846.15 158.65,1217.27 367.74,993.21 1069.2,1402.25 2143.36,1402.25 520.76,0 928.39,-83.8 1270.07,-264.6l0 -370.44 -502.37 159.13c-739.06,179.12 -1766.57,125.9 -2253.85,-525.16 -285.68,-381.7 -392.5,-1006.01 -392.5,-1486.14l3307.47 0c0,-647.15 -17.96,-1326.17 -457.49,-1844.5 -979.17,-1154.73 -3273.34,-552.89 -3273.34,1712.2z"/>
  <path class="fil0" d="M46569.16 2811.31c984.27,0 1402.37,673.59 1402.37,1666.96l-2884.11 0c54.49,-113.55 12.15,-625.61 429.31,-1131.8 134.98,-163.79 228.57,-262.25 425.91,-367.88 166.69,-89.23 382.8,-167.28 626.52,-167.28zm-1905.1 1772.8c0,588.63 -26.25,871.98 180.9,1433.14 66.58,180.39 169.51,386.96 289.03,531.22 48.9,59.01 78,103.96 131.49,159.58 417.07,433.7 929.96,627.88 1700.57,627.88 514.89,0 933.18,-86.33 1270.07,-264.6l0 -370.44c-270.42,22.51 -212.37,238.14 -1534.67,238.14 -482.33,0 -932.69,-247.78 -1211.47,-587.8 -287.14,-350.22 -402.58,-918.55 -402.58,-1502.52l3307.47 0c0,-657.24 -56.67,-1344.4 -417.01,-1779.14 -774.75,-934.65 -2180.8,-740.98 -2758.39,6.1 -39.17,50.67 -69.25,80.8 -106.1,132.04 -36.65,50.98 -64.65,104.84 -100.55,164.05 -187.96,309.96 -348.76,826.58 -348.76,1212.36z"/>
  <path class="fil0" d="M34979.79 3314.05c0,-253.29 -52.93,-467.97 -52.93,-740.88l-343.97 0 0 4630.45 423.35 0 0 -3413.31c0,-140.6 566.31,-712.27 982.38,-869.8 498.63,-188.78 1087.89,-125.14 1388.63,271.59 165.21,217.93 248.51,618.87 248.51,995.1l0 3016.41 396.9 0 0 -3254.55c0,-614.64 -289.64,-1173.84 -830.92,-1391.7 -348.09,-140.1 -799.5,-152.63 -1157.29,-40.85 -198.93,62.15 -248.1,94.06 -414.78,193.78 -342.64,205 -430.43,362.78 -639.88,603.74z"/>
  <path class="fil0" d="M9975.32 3737.4c0,1192.33 1419.07,1144.56 2055.7,1463.43 926.76,464.2 502.17,2178.75 -1521.56,1680.32 -91.57,-22.56 -188.28,-45.92 -285.35,-85.09 -106.52,-42.99 -164.58,-95.84 -275.26,-121.63l0 423.35c351.92,186.22 777.53,238.14 1270.06,238.14 1841.4,0 1858.17,-1692.93 1462.06,-2150.02 -23.94,-27.62 -39.2,-42.22 -63.57,-68.72 -201.54,-219.14 -541.12,-378.24 -863.7,-459.29 -635.27,-159.63 -1381.5,-256.49 -1381.5,-946.95 0,-974.95 1132.9,-996.88 1794.32,-815.31 185.65,50.96 464.21,190.44 534.14,206.73l0 -396.9c-862.52,-456.38 -2725.36,-445.15 -2725.36,1031.93z"/>
  <path class="fil0" d="M19844.81 4663.49c0,766.26 17.07,1462.7 615.13,2057.31 660.92,657.1 1704.01,763.1 2529.91,452.69 77.73,-29.22 181.03,-81.84 268.27,-102.17 0,-171.57 -5.97,-257.7 26.46,-396.9 -82.28,6.85 -171.49,50.8 -241.06,76.46 -794.14,292.87 -1774.29,323.07 -2341.22,-404.75 -533.28,-684.62 -564.47,-1872.4 -187.27,-2626.48 152.24,-304.34 323.97,-515.99 617.64,-678.89 573.98,-318.4 1254.84,-251.32 1831.03,-14.41 81.49,33.51 149.9,81.12 241.51,102.46l0 -423.35c-724.56,-383.39 -1789.65,-352.89 -2471.96,121.1 -74.29,51.62 -81.68,70.86 -143.98,120.62 -90.82,72.55 -70.24,43.78 -147.4,143.66 -84.09,108.86 -157.06,177.15 -232.4,296.79 -219.38,348.32 -364.66,831.24 -364.66,1275.85z"/>
  <path class="fil0" d="M7223.51 2573.17l-926.09 0 0 370.44 926.09 0 0 3281.01c0,738.83 505.35,1111.3 1243.6,1111.3 275.6,0 443.38,-55.03 661.49,-105.84l0 -370.43c-201.81,96.83 -560.52,79.37 -793.79,79.37 -632.73,0 -714.41,-576.97 -714.41,-1084.85l0 -2910.57 1428.83 0 0 -370.44 -1428.83 0 0 -1243.61 -396.9 0 0 1243.61z"/>
  <polygon class="fil0" points="-0,7203.62 423.35,7203.62 423.35,6.57 -0,6.57 "/>
  <polygon class="fil1" points="19752.82,773.9 18323.99,773.9 16650.1,3101.28 14976.22,773.9 13547.39,773.9 15935.68,4094.61 13547.39,7415.3 14976.22,7415.3 16650.1,5087.92 18323.99,7415.3 19752.82,7415.3 17364.51,4094.61 "/>
 </g>
</svg>
