<?xml version="1.0" standalone="no"?>
<!DOCTYPE svg PUBLIC "-//W3C//DTD SVG 20010904//EN"
 "http://www.w3.org/TR/2001/REC-SVG-20010904/DTD/svg10.dtd">
<svg version="1.0" xmlns="http://www.w3.org/2000/svg"
 width="32.000000pt" height="32.000000pt" viewBox="0 0 32.000000 32.000000"
 preserveAspectRatio="xMidYMid meet">
<metadata>
Created by potrace 1.15, written by Peter Selinger 2001-2017
</metadata>
<g transform="translate(0.000000,32.000000) scale(0.100000,-0.100000)"
fill="#000000" stroke="none">
<path d="M10 293 c0 -7 34 -52 74 -98 14 -16 26 -34 26 -38 0 -5 -25 -37 -55
-72 -30 -34 -55 -65 -55 -69 0 -3 17 -6 38 -6 34 0 43 6 78 50 21 27 41 49 44
49 3 0 23 -22 44 -49 35 -45 43 -50 78 -50 l40 0 -19 24 c-10 13 -37 46 -60
73 l-41 49 53 64 c30 36 54 68 54 73 1 4 -16 7 -37 7 -32 0 -42 -6 -72 -45
-19 -24 -38 -44 -41 -45 -4 0 -22 20 -40 45 -30 38 -39 44 -71 45 -21 0 -38
-3 -38 -7z"/>
</g>
</svg>
